<?xml version="1.0" encoding="UTF-8"?>
<svg version="1.1" xmlns="http://www.w3.org/2000/svg" width="500" height="500">
<path d="M0 0 C165 0 330 0 500 0 C500 165 500 330 500 500 C335 500 170 500 0 500 C0 335 0 170 0 0 Z " fill="#FEFEFE" transform="translate(0,0)"/>
<path d="M0 0 C10.42284578 -0.09285808 20.84559244 -0.16384514 31.26876831 -0.20724869 C36.10917823 -0.22808485 40.94930423 -0.25632966 45.78955078 -0.30175781 C50.46447524 -0.34535758 55.13912734 -0.36916696 59.8142395 -0.37950897 C61.59396652 -0.38687504 63.37367936 -0.40125922 65.15328979 -0.42292023 C67.65459906 -0.45214278 70.15479632 -0.45594825 72.65625 -0.45410156 C73.74922142 -0.47567322 73.74922142 -0.47567322 74.86427307 -0.49768066 C80.29367184 -0.45457234 84.45242581 1.01771477 89 4 C93 8.2 93 8.2 93 11 C93.66 11 94.32 11 95 11 C95.98753064 12.72440365 96.96468806 14.45475026 97.9375 16.1875 C98.48277344 17.15042969 99.02804688 18.11335938 99.58984375 19.10546875 C100.90579333 21.80662842 101.57301887 24.04356101 102 27 C102.66 27 103.32 27 104 27 C104.99 29.475 104.99 29.475 106 32 C106.66 32 107.32 32 108 32 C108.99 34.97 108.99 34.97 110 38 C110.66 38 111.32 38 112 38 C112.37125 39.134375 112.7425 40.26875 113.125 41.4375 C114.70153718 45.69188742 116.95972479 49.15259404 119.59765625 52.82421875 C121 55 121 55 121.93359375 57.64453125 C123.23880178 60.52746327 124.25845003 60.6425854 127 62 C128.16015625 64.2421875 128.16015625 64.2421875 129.0625 66.875 C130.30449355 70.44639776 131.68126905 73.02151964 134 76 C134.34227417 77.33106622 134.67751743 78.66400079 135 80 C135.66 80.33 136.32 80.66 137 81 C137.474375 82.155 137.94875 83.31 138.4375 84.5 C139.2109375 86.2325 139.2109375 86.2325 140 88 C140.99 88.33 141.98 88.66 143 89 C143 89.99 143 90.98 143 92 C143.66 92 144.32 92 145 92 C145.350625 92.94875 145.70125 93.8975 146.0625 94.875 C148.27794676 100.06547527 151.63630103 104.50060052 155 109 C155.61617187 109.84691406 156.23234375 110.69382812 156.8671875 111.56640625 C161.87783881 117.28368788 168.58409627 120.55889665 176.09912109 121.30957031 C183.40660804 121.60292502 190.69972489 121.39123971 198 121 C195 127 192 133 189 139 C188.34 139 187.68 139 187 139 C186.87625 139.556875 186.7525 140.11375 186.625 140.6875 C185.92924316 143.2618003 185.16814704 145.59880886 184 148 C183.01 148.33 182.02 148.66 181 149 C180.731875 149.804375 180.46375 150.60875 180.1875 151.4375 C179.08909778 154.73270665 177.82224586 157.07469974 176 160 C173.76986186 163.61044208 172.14713343 166.88943853 171 171 C170.34588315 172.67163195 169.68346682 174.34015202 169 176 C168.01 176 167.02 176 166 176 C165.67 177.65 165.34 179.3 165 181 C164.34 181 163.68 181 163 181 C162.9175 181.845625 162.835 182.69125 162.75 183.5625 C161.84266147 187.72113491 160.23458727 190.39582699 158 194 C157.34 194 156.68 194 156 194 C155.71125 194.928125 155.4225 195.85625 155.125 196.8125 C154 200 154 200 152 203 C151.34 203 150.68 203 150 203 C149.835 203.721875 149.67 204.44375 149.5 205.1875 C147.29205731 209.32739254 144.33568778 211.2885443 140 213 C136.61666032 213.38447042 133.38641858 213.31227221 130 213 C130 212.34 130 211.68 130 211 C129.34 211 128.68 211 128 211 C124.38019915 207.90992611 122.41317222 205.82034262 122 201 C121.34 201 120.68 201 120 201 C119.14531917 199.43778119 118.29130049 197.87520012 117.4375 196.3125 C116.89351563 195.31734375 116.34953125 194.3221875 115.7890625 193.296875 C114.56540208 191.04192 113.35233727 188.78119165 112.1484375 186.515625 C111.54257813 185.37609375 110.93671875 184.2365625 110.3125 183.0625 C109.75175781 182.00160156 109.19101563 180.94070313 108.61328125 179.84765625 C107.09705614 177.02483945 107.09705614 177.02483945 105.29296875 174.74609375 C104 173 104 173 104 171 C103.34 171 102.68 171 102 171 C101.31164062 169.58847656 101.31164062 169.58847656 100.609375 168.1484375 C99.98980228 166.89051714 99.36999823 165.63271069 98.75 164.375 C98.29947266 163.44880859 98.29947266 163.44880859 97.83984375 162.50390625 C96.3117894 159.41528575 94.72311425 156.50363023 92.765625 153.6640625 C91 151 91 151 91 149 C90.34 149 89.68 149 89 149 C88.01515892 147.25318707 87.03733813 145.5024149 86.0625 143.75 C85.51722656 142.77546875 84.97195312 141.8009375 84.41015625 140.796875 C83 138 83 138 82.49609375 135.703125 C82.33238281 135.14109375 82.16867188 134.5790625 82 134 C81.01 133.67 80.02 133.34 79 133 C77.71875 130.890625 77.71875 130.890625 76.5 128.25 C75.15691713 125.40558583 73.84173104 122.74349513 72.1875 120.0625 C71 118 71 118 71 115 C70.34 115 69.68 115 69 115 C67.80415985 113.12671346 66.69281168 111.19910603 65.625 109.25 C63.86507533 106.04026955 62.41765399 103.40153401 59.7734375 100.859375 C58 99 58 99 58 95 C57.34 95 56.68 95 56 95 C55.34 93.35 54.68 91.7 54 90 C53.34 90 52.68 90 52 90 C51.566875 88.783125 51.13375 87.56625 50.6875 86.3125 C49.72224123 83.71089778 48.75099819 81.58499698 47.3125 79.1875 C46 77 46 77 46 74 C45.34 74 44.68 74 44 74 C44 72.68 44 71.36 44 70 C43.34 70 42.68 70 42 70 C40.87084961 68.57885742 40.87084961 68.57885742 39.65234375 66.60546875 C39.21212891 65.89712891 38.77191406 65.18878906 38.31835938 64.45898438 C37.86267578 63.70939453 37.40699219 62.95980469 36.9375 62.1875 C36.47794922 61.44951172 36.01839844 60.71152344 35.54492188 59.95117188 C33.70229451 56.96129927 32.11564925 54.34694774 31 51 C30.35933594 50.70480469 29.71867187 50.40960938 29.05859375 50.10546875 C26.29007043 48.61876647 26.0393802 47.2521441 25.0625 44.3125 C23.57637767 40.26049457 21.89435493 37.17665001 19.28515625 33.76953125 C16.29675823 29.65480692 14.07371697 25.00766013 11.6796875 20.53125 C11.24914063 19.7371875 10.81859375 18.943125 10.375 18.125 C9.79878906 17.04605469 9.79878906 17.04605469 9.2109375 15.9453125 C7.98545664 13.97663679 6.64783321 12.61818068 5 11 C4.06509465 9.69376605 3.16939729 8.35868399 2.3125 7 C1.87550781 6.319375 1.43851563 5.63875 0.98828125 4.9375 C0 3 0 3 0 0 Z " fill="#151515" transform="translate(47,149)"/>
<path d="M0 0 C0 0.66 0 1.32 0 2 C0.59941406 2.24363281 1.19882812 2.48726562 1.81640625 2.73828125 C4.41165403 4.23786091 5.36366681 5.65454409 6.9375 8.1875 C8.74687523 11.04512789 10.57682984 13.80901951 12.625 16.5 C14.97268368 19.72993424 16.42539662 23.12655777 17.9609375 26.796875 C19.29094054 29.61688145 21.02683086 31.95489518 22.89453125 34.4375 C25.11022355 37.56922056 26 40.19539442 26 44 C26.57621094 44.18820313 27.15242188 44.37640625 27.74609375 44.5703125 C30.976741 46.61956188 32.32190156 49.58161335 34.0625 52.875 C36.66936216 57.74275734 36.66936216 57.74275734 39.74609375 62.3203125 C41 64 41 64 41 66 C41.66 66 42.32 66 43 66 C43 66.99 43 67.98 43 69 C43.66 69 44.32 69 45 69 C45.45826172 69.98613281 45.45826172 69.98613281 45.92578125 70.9921875 C49.59532239 78.62069838 53.81182764 85.77340923 58.30395508 92.94287109 C58.76697021 93.6848877 59.22998535 94.4269043 59.70703125 95.19140625 C60.1244458 95.85342041 60.54186035 96.51543457 60.97192383 97.19750977 C62 99 62 99 63 102 C63.66 102 64.32 102 65 102 C67 105 67 105 67 108 C67.66 108 68.32 108 69 108 C69.4021875 109.0828125 69.4021875 109.0828125 69.8125 110.1875 C70.94032684 113.04679724 70.94032684 113.04679724 72.625 115.6875 C74 118 74 118 74 120 C74.99 120 75.98 120 77 120 C77.40089844 121.15628906 77.80179688 122.31257813 78.21484375 123.50390625 C79.88489636 127.95313038 82.08258799 131.89601208 84.5625 135.9375 C84.96146484 136.60845703 85.36042969 137.27941406 85.77148438 137.97070312 C87.79299898 141.57637087 87.79299898 141.57637087 91 144 C91.84692901 146.22596002 92.46846299 148.48363587 93.12109375 150.7734375 C94.0812686 153.20588046 95.11703001 154.23000821 97 156 C98.34348737 158.04911723 99.57473768 160.14581549 100.81640625 162.2578125 C101.89545329 164.15127981 101.89545329 164.15127981 104 165 C104 166.32 104 167.64 104 169 C104.66 169 105.32 169 106 169 C106.99 171.97 107.98 174.94 109 178 C109.66 178 110.32 178 111 178 C111.49628906 179.05058594 111.99257813 180.10117187 112.50390625 181.18359375 C116.34254843 189.16610579 120.27638359 196.18617095 126 203 C128.51526735 206.65119455 129 207.4550512 129 212 C100.95 212 72.9 212 44 212 C44 211.34 44 210.68 44 210 C43.4225 209.938125 42.845 209.87625 42.25 209.8125 C38.9926199 208.63622385 37.92214837 206.85222016 36 204 C34.94647157 201.69034152 33.94280904 199.3570226 33 197 C31.90470673 194.44431571 31.10963226 193.10255921 29.0625 191.1875 C26.42795584 188.3932865 25.41042412 185.55672169 24 182 C23.443125 180.906875 22.88625 179.81375 22.3125 178.6875 C21 176 21 176 21 174 C20.34 174 19.68 174 19 174 C18.67 173.01 18.34 172.02 18 171 C17.01 170.67 16.02 170.34 15 170 C13.75390625 167.48828125 13.75390625 167.48828125 12.5625 164.3125 C10.75421459 159.72098012 8.88246831 155.97581836 6 152 C5.62875 151.236875 5.2575 150.47375 4.875 149.6875 C4.11181389 147.8108354 4.11181389 147.8108354 2 147 C0.55487596 143.3871899 0 140.93312158 0 137 C-1.175625 136.6596875 -1.175625 136.6596875 -2.375 136.3125 C-5 135 -5 135 -6.3125 132.375 C-6.539375 131.59125 -6.76625 130.8075 -7 130 C-7.66 130 -8.32 130 -9 130 C-10.78305524 127.36107824 -11.99059621 125.02821137 -13 122 C-13.66 122 -14.32 122 -15 122 C-15.495 118.04 -15.495 118.04 -16 114 C-16.66 114 -17.32 114 -18 114 C-19.07525194 111.34771188 -20.09456151 108.71631546 -21 106 C-21.99 106 -22.98 106 -24 106 C-24.4125 105.29875 -24.825 104.5975 -25.25 103.875 C-27.81189342 99.66617509 -31.56604383 96.21697809 -36 94 C-36 93.34 -36 92.68 -36 92 C-37.258125 91.855625 -38.51625 91.71125 -39.8125 91.5625 C-42.42667123 91.26251314 -44.47439892 90.84186703 -47 90 C-48.55421729 89.91893314 -50.11167027 89.89243102 -51.66796875 89.90234375 C-52.56064453 89.90556641 -53.45332031 89.90878906 -54.37304688 89.91210938 C-55.30181641 89.92048828 -56.23058594 89.92886719 -57.1875 89.9375 C-58.12787109 89.94201172 -59.06824219 89.94652344 -60.03710938 89.95117188 C-62.35813712 89.96295374 -64.67903644 89.97940442 -67 90 C-67 89.01 -67 88.02 -67 87 C-66.34 87 -65.68 87 -65 87 C-64.89429688 86.46632813 -64.78859375 85.93265625 -64.6796875 85.3828125 C-63.81608725 82.35524839 -62.51875665 79.69718387 -61.125 76.875 C-60.61195313 75.82054687 -60.09890625 74.76609375 -59.5703125 73.6796875 C-58 71 -58 71 -55 69 C-53.66237324 66.34800956 -52.43524228 63.71824853 -51.25 61 C-48.50512586 54.91900876 -45.58893632 49.42149309 -41.54296875 44.078125 C-38.38682356 39.8273168 -36.40524387 35.65869908 -34.74609375 30.671875 C-34 29 -34 29 -32 28 C-31.09656316 26.11736119 -31.09656316 26.11736119 -30.375 23.9375 C-30.11460937 23.20402344 -29.85421875 22.47054687 -29.5859375 21.71484375 C-29.39257812 21.14894531 -29.19921875 20.58304688 -29 20 C-28.34 20 -27.68 20 -27 20 C-26.79375 19.01 -26.5875 18.02 -26.375 17 C-25.03096966 12.20823966 -22.06016824 8.8252103 -19 5 C-18.34 4.01 -17.68 3.02 -17 2 C-11.55475864 -0.65280989 -5.90770677 -0.18921481 0 0 Z " fill="#151515" transform="translate(332,150)"/>
<path d="M0 0 C2.95584151 2.75199037 5.18765147 5.37530293 7 9 C7 10.32 7 11.64 7 13 C-21.05 13 -49.1 13 -78 13 C-78 12.34 -78 11.68 -78 11 C-79.32 10.67 -80.64 10.34 -82 10 C-82 9.01 -82 8.02 -82 7 C-81.505 7.309375 -81.01 7.61875 -80.5 7.9375 C-74.85505753 10.33660055 -68.25289713 10.13383399 -62.20703125 10.20532227 C-61.10800224 10.22017166 -61.10800224 10.22017166 -59.98677063 10.23532104 C-57.59537853 10.26659019 -55.20396664 10.29155467 -52.8125 10.31640625 C-51.14241049 10.33700576 -49.47232584 10.35800296 -47.80224609 10.37937927 C-43.42938196 10.43429071 -39.05647321 10.48383497 -34.68353271 10.53222656 C-30.21215902 10.58266897 -25.74084925 10.63823574 -21.26953125 10.69335938 C-12.51307506 10.80056203 -3.756565 10.9020894 5 11 C5 10.01 5 9.02 5 8 C4.360625 7.79375 3.72125 7.5875 3.0625 7.375 C1 6 1 6 0.25 2.875 C0.1675 1.92625 0.085 0.9775 0 0 Z " fill="#6D6D6D" transform="translate(454,349)"/>
<path d="M0 0 C26.73 0 53.46 0 81 0 C81.495 0.99 81.495 0.99 82 2 C57.25 2.33 32.5 2.66 7 3 C6.67 5.31 6.34 7.62 6 10 C6.66 10 7.32 10 8 10 C8.33 11.32 8.66 12.64 9 14 C5.23193471 12.74397824 4.78753493 11.48987433 2.8125 8.125 C2.28269531 7.24070313 1.75289062 6.35640625 1.20703125 5.4453125 C0 3 0 3 0 0 Z " fill="#636363" transform="translate(47,149)"/>
<path d="M0 0 C0.88816406 0.32742188 1.77632812 0.65484375 2.69140625 0.9921875 C8.33029701 2.60329915 14.12566113 2.21090552 19.9375 2.125 C21.67870117 2.11146484 21.67870117 2.11146484 23.45507812 2.09765625 C26.30360108 2.07421162 29.15169078 2.04139522 32 2 C29 8 26 14 23 20 C22.34 20 21.68 20 21 20 C20.87625 20.556875 20.7525 21.11375 20.625 21.6875 C19.93456646 24.2421041 19.10518316 26.59460135 18 29 C17.34 29.33 16.68 29.66 16 30 C16.95170202 26.11388342 17.91720524 22.94816519 20.0625 19.5625 C22.3895396 15.75852013 22.55998495 12.40015047 23 8 C23.66 7.01 24.32 6.02 25 5 C24.01 5.33 23.02 5.66 22 6 C19.66700175 6.03954234 17.33291811 6.04401732 15 6 C15 5.34 15 4.68 15 4 C13.87851563 4.01740234 13.87851563 4.01740234 12.734375 4.03515625 C11.74953125 4.04417969 10.7646875 4.05320312 9.75 4.0625 C8.28820312 4.07990234 8.28820312 4.07990234 6.796875 4.09765625 C4.34241322 4.01195577 2.33831086 3.70706066 0 3 C0 2.01 0 1.02 0 0 Z " fill="#4F4F4F" transform="translate(213,268)"/>
<path d="M0 0 C4.72224569 2.93545002 5.88803458 5.7247046 7.2265625 10.87890625 C8.10544265 13.28916847 9.15029779 14.26045375 11 16 C12.34348737 18.04911723 13.57473768 20.14581549 14.81640625 22.2578125 C15.89545329 24.15127981 15.89545329 24.15127981 18 25 C18 26.32 18 27.64 18 29 C18.66 29 19.32 29 20 29 C20.66 31.31 21.32 33.62 22 36 C21.01 35.34 20.02 34.68 19 34 C19 32.68 19 31.36 19 30 C18.34 30 17.68 30 17 30 C17 29.34 17 28.68 17 28 C16.34 28 15.68 28 15 28 C15 27.01 15 26.02 15 25 C14.34 25 13.68 25 13 25 C13 24.01 13 23.02 13 22 C11.35 22 9.7 22 8 22 C8 20.68 8 19.36 8 18 C6.68 17.67 5.36 17.34 4 17 C4.33 16.67 4.66 16.34 5 16 C4.01 15.67 3.02 15.34 2 15 C2.33 12.03 2.66 9.06 3 6 C2.01 5.34 1.02 4.68 0 4 C0 2.68 0 1.36 0 0 Z " fill="#545454" transform="translate(418,290)"/>
<path d="M0 0 C3.36179774 1.44077046 5.59156268 3.24750021 8 6 C8 6.66 8 7.32 8 8 C9.32 8.66 10.64 9.32 12 10 C12 10.66 12 11.32 12 12 C12.99 12 13.98 12 15 12 C15.28875 12.928125 15.5775 13.85625 15.875 14.8125 C16.8875 18.09791667 16.8875 18.09791667 19 21 C19.7362835 22.50750016 20.44315377 24.02960866 21.125 25.5625 C21.47820312 26.34753906 21.83140625 27.13257813 22.1953125 27.94140625 C23 30 23 30 23 32 C23.66 32 24.32 32 25 32 C26.06775224 33.96466413 27.06553465 35.96855359 28 38 C27.67 38.66 27.34 39.32 27 40 C24 36.25 24 36.25 24 34 C23.34 34 22.68 34 22 34 C20.21694476 31.36107824 19.00940379 29.02821137 18 26 C17.34 26 16.68 26 16 26 C15.67 23.36 15.34 20.72 15 18 C14.34 18 13.68 18 13 18 C11.92474806 15.34771188 10.90543849 12.71631546 10 10 C9.01 10 8.02 10 7 10 C5.5625 7.8125 5.5625 7.8125 4 5 C2.68962066 3.31522656 1.36176922 1.64351457 0 0 Z " fill="#737373" transform="translate(301,246)"/>
<path d="M0 0 C0.625 1.875 0.625 1.875 1 4 C0.34 4.66 -0.32 5.32 -1 6 C-1.6425235 8.06874034 -1.6425235 8.06874034 -2 10 C-2.99 10 -3.98 10 -5 10 C-5.33 11.65 -5.66 13.3 -6 15 C-6.66 15 -7.32 15 -8 15 C-8.0825 15.845625 -8.165 16.69125 -8.25 17.5625 C-9.15733853 21.72113491 -10.76541273 24.39582699 -13 28 C-13.66 28 -14.32 28 -15 28 C-15.28875 28.969375 -15.5775 29.93875 -15.875 30.9375 C-17 34 -17 34 -19 35 C-17.00386732 28.2813095 -14.2708579 22.19265192 -11 16 C-10.34 16 -9.68 16 -9 16 C-9.185625 15.21625 -9.37125 14.4325 -9.5625 13.625 C-10 11 -10 11 -9 9 C-8.195625 8.731875 -7.39125 8.46375 -6.5625 8.1875 C-3.78343576 7.23123333 -3.78343576 7.23123333 -2.8125 4.5 C-2.544375 3.675 -2.27625 2.85 -2 2 C-1.34 1.34 -0.68 0.68 0 0 Z " fill="#515151" transform="translate(218,315)"/>
<path d="M0 0 C3.67905443 1.83952721 4.71852374 6.5938257 6.3671875 10.21484375 C8.14485031 13.24707721 8.98115456 13.55461339 12 15 C13.16015625 17.2421875 13.16015625 17.2421875 14.0625 19.875 C15.2962949 23.42282225 16.60938214 26.08791592 19 29 C18.67 29.66 18.34 30.32 18 31 C17.01 30.67 16.02 30.34 15 30 C14.05078125 27.71484375 14.05078125 27.71484375 13.3125 24.9375 C13.06113281 24.01839844 12.80976563 23.09929687 12.55078125 22.15234375 C12.36902344 21.44207031 12.18726563 20.73179687 12 20 C10.68 20 9.36 20 8 20 C7.49384702 18.73160474 6.99530901 17.46016898 6.5 16.1875 C6.2215625 15.47980469 5.943125 14.77210938 5.65625 14.04296875 C5 12 5 12 5 9 C2.03 8.505 2.03 8.505 -1 8 C-0.67 5.36 -0.34 2.72 0 0 Z " fill="#3A3A3A" transform="translate(162,196)"/>
<path d="M0 0 C0.99 0.495 0.99 0.495 2 1 C2 1.66 2 2.32 2 3 C2.66 3 3.32 3 4 3 C4 3.99 4 4.98 4 6 C4.66 6 5.32 6 6 6 C6.54527344 7.12535156 6.54527344 7.12535156 7.1015625 8.2734375 C10.10435375 14.38681252 13.26274774 20.27789257 16.8984375 26.0390625 C18 28 18 28 18 30 C17.34 30 16.68 30 16 30 C16 29.01 16 28.02 16 27 C15.34 27 14.68 27 14 27 C11.95830515 24.09451118 11 22.59857954 11 19 C10.01 19 9.02 19 8 19 C7.67 16.36 7.34 13.72 7 11 C6.01 11 5.02 11 4 11 C4 10.34 4 9.68 4 9 C2.68 8.67 1.36 8.34 0 8 C0 5.36 0 2.72 0 0 Z " fill="#5D5D5D" transform="translate(371,213)"/>
<path d="M0 0 C0.33 0 0.66 0 1 0 C1 1.98 1 3.96 1 6 C1.66 6 2.32 6 3 6 C3 6.66 3 7.32 3 8 C3.66 8 4.32 8 5 8 C5 7.34 5 6.68 5 6 C5.66 6 6.32 6 7 6 C7 6.66 7 7.32 7 8 C9.64 8.33 12.28 8.66 15 9 C15 9.33 15 9.66 15 10 C8.4 10.33 1.8 10.66 -5 11 C-5 10.01 -5 9.02 -5 8 C-4.34 8 -3.68 8 -3 8 C-2.87625 7.4225 -2.7525 6.845 -2.625 6.25 C-1.99351176 3.97664233 -1.11141809 2.0746471 0 0 Z " fill="#262626" transform="translate(270,229)"/>
<path d="M0 0 C0.66 0 1.32 0 2 0 C2.33 0.66 2.66 1.32 3 2 C4.32 2 5.64 2 7 2 C9 4 9 4 9.125 6.625 C9.08375 7.40875 9.0425 8.1925 9 9 C9.33 9 9.66 9 10 9 C10.33 11.97 10.66 14.94 11 18 C8.81884536 15.81884536 7.54866467 13.66370324 6 11 C5.443125 10.113125 4.88625 9.22625 4.3125 8.3125 C3 6 3 6 3 4 C2.34 4 1.68 4 1 4 C0.67 2.68 0.34 1.36 0 0 Z " fill="#282828" transform="translate(135,294)"/>
<path d="M0 0 C3.08089673 2.77280706 4.68775452 5.06326356 6 9 C6.66 9 7.32 9 8 9 C8 10.32 8 11.64 8 13 C8.66 13 9.32 13 10 13 C10.64834654 14.269553 11.29357815 15.54069706 11.9375 16.8125 C12.29714844 17.52019531 12.65679687 18.22789062 13.02734375 18.95703125 C14 21 14 21 15 24 C14.01 24 13.02 24 12 24 C12 23.01 12 22.02 12 21 C11.34 21 10.68 21 10 21 C7.96564469 17.27034861 7 15.33094958 7 11 C6.34 11 5.68 11 5 11 C5 10.01 5 9.02 5 8 C4.34 8 3.68 8 3 8 C0 2.25 0 2.25 0 0 Z " fill="#B9B9B9" transform="translate(83,210)"/>
<path d="M0 0 C2.33524782 2.25740623 4.18705073 4.2805761 6 7 C6 8.65 6 10.3 6 12 C-5.22 12 -16.44 12 -28 12 C-28 11.67 -28 11.34 -28 11 C-17.11 11 -6.22 11 5 11 C5 10.01 5 9.02 5 8 C4.360625 7.79375 3.72125 7.5875 3.0625 7.375 C1 6 1 6 0.25 2.875 C0.12625 1.451875 0.12625 1.451875 0 0 Z " fill="#3E3E3E" transform="translate(454,349)"/>
<path d="M0 0 C4.455 0.99 4.455 0.99 9 2 C9.33 1.34 9.66 0.68 10 0 C10 0.99 10 1.98 10 3 C-4.52 3 -19.04 3 -34 3 C-34 2.67 -34 2.34 -34 2 C-22.78 2 -11.56 2 0 2 C0 1.34 0 0.68 0 0 Z " fill="#212121" transform="translate(449,357)"/>
<path d="M0 0 C0.88816406 0.32742188 1.77632812 0.65484375 2.69140625 0.9921875 C8.33029701 2.60329915 14.12566113 2.21090552 19.9375 2.125 C21.67870117 2.11146484 21.67870117 2.11146484 23.45507812 2.09765625 C26.30360108 2.07421162 29.15169078 2.04139522 32 2 C31.34 3.32 30.68 4.64 30 6 C29.67 5.34 29.34 4.68 29 4 C27.89543457 4.00785522 27.89543457 4.00785522 26.76855469 4.01586914 C23.42904515 4.03666867 20.08954926 4.04966968 16.75 4.0625 C15.01169922 4.07506836 15.01169922 4.07506836 13.23828125 4.08789062 C12.12324219 4.09111328 11.00820312 4.09433594 9.859375 4.09765625 C8.31975098 4.10551147 8.31975098 4.10551147 6.74902344 4.11352539 C4.32374344 4.01336951 2.31302639 3.69923078 0 3 C0 2.01 0 1.02 0 0 Z " fill="#939393" transform="translate(213,268)"/>
<path d="M0 0 C0.66 0 1.32 0 2 0 C2.33 2.31 2.66 4.62 3 7 C4.32 7 5.64 7 7 7 C5.125 11.75 5.125 11.75 4 14 C3.34 14 2.68 14 2 14 C2 12.68 2 11.36 2 10 C1.34 10 0.68 10 0 10 C-0.99 8.02 -1.98 6.04 -3 4 C-2.01 4 -1.02 4 0 4 C0 2.68 0 1.36 0 0 Z " fill="#242424" transform="translate(89,209)"/>
<path d="M0 0 C3.63 0 7.26 0 11 0 C11 0.66 11 1.32 11 2 C11.5775 2.20625 12.155 2.4125 12.75 2.625 C15.84477636 4.51625222 17.1918763 6.90035937 19 10 C19 10.66 19 11.32 19 12 C18.34 12 17.68 12 17 12 C15.375 9.5 15.375 9.5 14 7 C12.02 7.33 10.04 7.66 8 8 C8 7.34 8 6.68 8 6 C8.66 6 9.32 6 10 6 C10 4.35 10 2.7 10 1 C6.7 1 3.4 1 0 1 C0 0.67 0 0.34 0 0 Z " fill="#525252" transform="translate(321,150)"/>
<path d="M0 0 C1.32 0 2.64 0 4 0 C4 0.66 4 1.32 4 2 C4.66 2 5.32 2 6 2 C6.36237263 3.62318979 6.71465157 5.2486358 7.0625 6.875 C7.25972656 7.77992188 7.45695312 8.68484375 7.66015625 9.6171875 C8 12 8 12 7 14 C6.67 13.01 6.34 12.02 6 11 C5.34 11 4.68 11 4 11 C3.52014033 9.72942818 3.0411407 8.45853152 2.5625 7.1875 C2.16224609 6.12595703 2.16224609 6.12595703 1.75390625 5.04296875 C1.13774814 3.37327604 0.56280765 1.68842296 0 0 Z " fill="#444444" transform="translate(95,228)"/>
<path d="M0 0 C0.66 0.33 1.32 0.66 2 1 C1.01 1.33 0.02 1.66 -1 2 C-0.67 2.99 -0.34 3.98 0 5 C-0.928125 5.12375 -0.928125 5.12375 -1.875 5.25 C-4.1765144 5.79994195 -4.1765144 5.79994195 -5.125 8 C-5.41375 8.66 -5.7025 9.32 -6 10 C-6.99 10.495 -6.99 10.495 -8 11 C-9.04808041 12.97522846 -10.0520411 14.97481509 -11 17 C-11.70703125 15.28515625 -11.70703125 15.28515625 -12 13 C-10.63671875 10.74609375 -10.63671875 10.74609375 -8.6875 8.4375 C-6.65311066 5.99045562 -4.76861532 3.65292298 -3 1 C-2.01 0.67 -1.02 0.34 0 0 Z " fill="#4A4A4A" transform="translate(318,151)"/>
<path d="M0 0 C0.66 0 1.32 0 2 0 C2 0.99 2 1.98 2 3 C2.66 3 3.32 3 4 3 C4.61875 4.546875 4.61875 4.546875 5.25 6.125 C6.77168503 9.71442928 8.82063008 12.76852046 11 16 C11 16.66 11 17.32 11 18 C10.01 17.67 9.02 17.34 8 17 C8 16.01 8 15.02 8 14 C7.34 14 6.68 14 6 14 C4.99515796 12.04414675 3.99626195 10.08523763 3 8.125 C2.1646875 6.48917969 2.1646875 6.48917969 1.3125 4.8203125 C0 2 0 2 0 0 Z " fill="#707070" transform="translate(188,238)"/>
<path d="M0 0 C0.99 0.495 0.99 0.495 2 1 C2 1.66 2 2.32 2 3 C2.66 3 3.32 3 4 3 C4.66 4.98 5.32 6.96 6 9 C6.66 9 7.32 9 8 9 C8.33 10.65 8.66 12.3 9 14 C7 12.625 7 12.625 5 11 C5 10.34 5 9.68 5 9 C3.68 9.33 2.36 9.66 1 10 C0.67 6.7 0.34 3.4 0 0 Z " fill="#565656" transform="translate(151,178)"/>
<path d="M0 0 C0.66 0 1.32 0 2 0 C4 3 4 3 4 6 C4.66 6 5.32 6 6 6 C6.268125 6.721875 6.53625 7.44375 6.8125 8.1875 C7.93515158 11.05633076 7.93515158 11.05633076 9.6875 13.6875 C10.120625 14.450625 10.55375 15.21375 11 16 C10.67 16.66 10.34 17.32 10 18 C7.02987144 14.51778031 4.97362479 11.11886913 3 7 C2.1646875 5.63875 2.1646875 5.63875 1.3125 4.25 C0 2 0 2 0 0 Z " fill="#818181" transform="translate(395,252)"/>
<path d="M0 0 C2.475 0.495 2.475 0.495 5 1 C4.67 3.31 4.34 5.62 4 8 C4.66 8 5.32 8 6 8 C6.33 9.32 6.66 10.64 7 12 C3.33663903 10.77887968 2.64957986 9.13279518 0.76953125 5.88671875 C0 4 0 4 0 0 Z " fill="#343434" transform="translate(49,151)"/>
<path d="M0 0 C2.25 -0.3125 2.25 -0.3125 5 0 C9 4.10810811 9 4.10810811 9 7 C6.75 7.3125 6.75 7.3125 4 7 C0 2.89189189 0 2.89189189 0 0 Z " fill="#0E0E0E" transform="translate(449,352)"/>
<path d="M0 0 C3.74544316 3.32928281 7.01959997 7.37002367 9 12 C8.63671875 14.25 8.63671875 14.25 8 16 C5 11.375 5 11.375 5 8 C4.360625 7.79375 3.72125 7.5875 3.0625 7.375 C1 6 1 6 0.25 2.875 C0.1675 1.92625 0.085 0.9775 0 0 Z " fill="#4F4F4F" transform="translate(340,162)"/>
<path d="M0 0 C4.17906895 3.55994763 6.68559431 8.08663054 9 13 C9 13.66 9 14.32 9 15 C8.34 15 7.68 15 7 15 C6.401875 13.9275 5.80375 12.855 5.1875 11.75 C3.97204733 9.60024919 2.79877352 7.7484669 1.25 5.8125 C0 4 0 4 0 0 Z " fill="#B0B0B0" transform="translate(59,171)"/>
<path d="M0 0 C2.475 0.495 2.475 0.495 5 1 C5 1.66 5 2.32 5 3 C6.32 3 7.64 3 9 3 C9 3.66 9 4.32 9 5 C9.721875 5.12375 10.44375 5.2475 11.1875 5.375 C13.95721894 5.9904931 16.3970354 6.88444374 19 8 C17.44921875 8.70703125 17.44921875 8.70703125 15 9 C12.47412618 7.99253718 10.20090044 6.95137208 7.8125 5.6875 C6.85053711 5.20506836 6.85053711 5.20506836 5.86914062 4.71289062 C1.14060834 2.28121668 1.14060834 2.28121668 0 0 Z " fill="#D4D4D4" transform="translate(205,262)"/>
<path d="M0 0 C2.4138176 0.22117559 4.83114597 0.40572242 7.25 0.5625 C8.51328125 0.64628906 9.7765625 0.73007813 11.078125 0.81640625 C12.04234375 0.87699219 13.0065625 0.93757812 14 1 C14 1.33 14 1.66 14 2 C7.4 2.33 0.8 2.66 -6 3 C-6 2.01 -6 1.02 -6 0 C-3.41632296 -1.29183852 -2.76931129 -0.7109138 0 0 Z " fill="#4A4A4A" transform="translate(271,237)"/>
<path d="M0 0 C0.99 0.33 1.98 0.66 3 1 C4.0625 3.14453125 4.0625 3.14453125 5 5.8125 C6.26087636 9.36922206 7.59972975 12.07467063 10 15 C9.67 15.66 9.34 16.32 9 17 C8.01 16.67 7.02 16.34 6 16 C5.21174038 14.06219509 4.4339259 12.11777368 3.76171875 10.13671875 C2.95790199 7.74577948 2.95790199 7.74577948 1.3125 4.625 C0 2 0 2 0 0 Z " fill="#727272" transform="translate(171,210)"/>
<path d="M0 0 C0.66 0 1.32 0 2 0 C0.55049545 3.7910119 -1.15172566 7.3874638 -3 11 C-3.66 11 -4.32 11 -5 11 C-5.433125 12.4540625 -5.433125 12.4540625 -5.875 13.9375 C-7 17 -7 17 -9 18 C-8.57576756 16.53775201 -8.13509755 15.08026588 -7.6875 13.625 C-7.44386719 12.81289063 -7.20023438 12.00078125 -6.94921875 11.1640625 C-6 9 -6 9 -3 7 C-1.92863949 4.69855891 -0.92010283 2.3659787 0 0 Z " fill="#AAAAAA" transform="translate(208,332)"/>
<path d="M0 0 C5.28 0 10.56 0 16 0 C11.91748364 3.06188727 11.43502071 3.37243503 6.75 3.1875 C5.85796875 3.16042969 4.9659375 3.13335937 4.046875 3.10546875 C3.37140625 3.07066406 2.6959375 3.03585937 2 3 C2 2.34 2 1.68 2 1 C1.34 0.67 0.68 0.34 0 0 Z " fill="#7E7E7E" transform="translate(175,359)"/>
<path d="M0 0 C0.99 0 1.98 0 3 0 C3.48198463 1.24891614 3.96045677 2.49918808 4.4375 3.75 C4.83775391 4.79414063 4.83775391 4.79414063 5.24609375 5.859375 C5.96146693 7.89059003 6.51365652 9.9035291 7 12 C6.34 12 5.68 12 5 12 C5 11.34 5 10.68 5 10 C4.34 10 3.68 10 3 10 C2.01 6.7 1.02 3.4 0 0 Z " fill="#7A7A7A" transform="translate(406,270)"/>
<path d="M0 0 C0.99 0.33 1.98 0.66 3 1 C3 1.99 3 2.98 3 4 C4.32 4.33 5.64 4.66 7 5 C7.33 6.98 7.66 8.96 8 11 C5.5625 9.875 5.5625 9.875 3 8 C2.1875 4.8125 2.1875 4.8125 2 2 C1.34 2 0.68 2 0 2 C0 1.34 0 0.68 0 0 Z " fill="#565656" transform="translate(103,242)"/>
<path d="M0 0 C3.08089673 2.77280706 4.68775452 5.06326356 6 9 C6.66 9 7.32 9 8 9 C7.67 10.32 7.34 11.64 7 13 C7 12.34 7 11.68 7 11 C6.34 11 5.68 11 5 11 C5 10.01 5 9.02 5 8 C4.34 8 3.68 8 3 8 C0 2.25 0 2.25 0 0 Z " fill="#959595" transform="translate(83,210)"/>
<path d="M0 0 C0.33 0.66 0.66 1.32 1 2 C0.34 2 -0.32 2 -1 2 C-1.2475 2.78375 -1.495 3.5675 -1.75 4.375 C-3.15389099 7.32317108 -4.00675737 7.9024777 -7 9 C-6.67 7.02 -6.34 5.04 -6 3 C-4.68 3 -3.36 3 -2 3 C-2 2.34 -2 1.68 -2 1 C-1.34 0.67 -0.68 0.34 0 0 Z " fill="#5A5A5A" transform="translate(198,350)"/>
<path d="M0 0 C2.3125 0.5625 2.3125 0.5625 5 2 C6.875 5.4375 6.875 5.4375 8 9 C7.67 9.99 7.34 10.98 7 12 C6.67 10.68 6.34 9.36 6 8 C5.34 8 4.68 8 4 8 C3.34 6.02 2.68 4.04 2 2 C1.34 2 0.68 2 0 2 C0 1.34 0 0.68 0 0 Z " fill="#484848" transform="translate(314,262)"/>
<path d="M0 0 C0.625 1.875 0.625 1.875 1 4 C0.34 4.66 -0.32 5.32 -1 6 C-1.6425235 8.06874034 -1.6425235 8.06874034 -2 10 C-2.99 10 -3.98 10 -5 10 C-3.14285714 2.42857143 -3.14285714 2.42857143 0 0 Z " fill="#A3A3A3" transform="translate(218,315)"/>
<path d="M0 0 C0.66 0 1.32 0 2 0 C2 0.99 2 1.98 2 3 C3.32 3 4.64 3 6 3 C6.33 5.97 6.66 8.94 7 12 C3.55341043 8.55341043 1.68336724 4.53214258 0 0 Z " fill="#383838" transform="translate(139,300)"/>
<path d="M0 0 C0.99 0.495 0.99 0.495 2 1 C2.625 4.0625 2.625 4.0625 3 7 C3.66 7 4.32 7 5 7 C5.33 8.32 5.66 9.64 6 11 C5.34 11 4.68 11 4 11 C4 10.34 4 9.68 4 9 C2.68 8.67 1.36 8.34 0 8 C0 5.36 0 2.72 0 0 Z " fill="#3A3A3A" transform="translate(371,213)"/>
<path d="M0 0 C0.66 0 1.32 0 2 0 C2 0.99 2 1.98 2 3 C2.66 3 3.32 3 4 3 C4 3.99 4 4.98 4 6 C4.66 6 5.32 6 6 6 C6.33 7.65 6.66 9.3 7 11 C3.17330957 7.57611908 1.27721526 4.99275057 0 0 Z " fill="#BDBDBD" transform="translate(447,336)"/>
<path d="M0 0 C5.94 1.485 5.94 1.485 12 3 C12 3.33 12 3.66 12 4 C3.42857143 4.14285714 3.42857143 4.14285714 0 3 C0 2.01 0 1.02 0 0 Z " fill="#5E5E5E" transform="translate(213,268)"/>
<path d="M0 0 C1 2 1 2 0.4765625 4.09375 C0.05503906 5.28484375 0.05503906 5.28484375 -0.375 6.5 C-0.65085937 7.2940625 -0.92671875 8.088125 -1.2109375 8.90625 C-2 11 -2 11 -3 13 C-3.66 12.67 -4.32 12.34 -5 12 C-3.35 8.04 -1.7 4.08 0 0 Z " fill="#4E4E4E" transform="translate(298,179)"/>
<path d="M0 0 C0.99 0 1.98 0 3 0 C3 0.99 3 1.98 3 3 C3.66 3 4.32 3 5 3 C5 3.66 5 4.32 5 5 C5.66 5 6.32 5 7 5 C7 6.32 7 7.64 7 9 C6.34 9 5.68 9 5 9 C3.35 6.03 1.7 3.06 0 0 Z " fill="#363636" transform="translate(111,255)"/>
<path d="M0 0 C0.86325845 2.41712366 1.1132654 3.64990694 0.3125 6.125 C-1.2190732 8.31296172 -2.54765115 9.01906046 -5 10 C-3.66511872 6.40608886 -2.03977277 3.24509304 0 0 Z " fill="#4F4F4F" transform="translate(290,194)"/>
<path d="M0 0 C3.08089673 2.77280706 4.68775452 5.06326356 6 9 C3 7.3125 3 7.3125 0 5 C-0.375 2.25 -0.375 2.25 0 0 Z " fill="#4E4E4E" transform="translate(389,243)"/>
<path d="M0 0 C3.08089673 2.77280706 4.68775452 5.06326356 6 9 C3.5625 7.875 3.5625 7.875 1 6 C0.1875 2.8125 0.1875 2.8125 0 0 Z " fill="#5D5D5D" transform="translate(454,349)"/>
<path d="M0 0 C0 3.60777515 -0.9904432 5.06295544 -3 8 C-3.99 8.495 -3.99 8.495 -5 9 C-4.50769231 3.46153846 -4.50769231 3.46153846 -1.9375 1.125 C-1.298125 0.75375 -0.65875 0.3825 0 0 Z " fill="#AAAAAA" transform="translate(295,185)"/>
<path d="M0 0 C0.33 0.66 0.66 1.32 1 2 C0.00390625 4.1640625 0.00390625 4.1640625 -1.4375 6.625 C-1.91058594 7.44226563 -2.38367188 8.25953125 -2.87109375 9.1015625 C-3.24363281 9.72804687 -3.61617188 10.35453125 -4 11 C-4.65234375 9.234375 -4.65234375 9.234375 -5 7 C-4.00390625 5.078125 -4.00390625 5.078125 -2.5625 3.25 C-2.08941406 2.63640625 -1.61632812 2.0228125 -1.12890625 1.390625 C-0.75636719 0.93171875 -0.38382812 0.4728125 0 0 Z " fill="#919191" transform="translate(311,157)"/>
<path d="M0 0 C2.79872437 2.52788007 4.45773019 4.20411134 5 8 C4.34 8 3.68 8 3 8 C0.25624329 5.04518508 0 4.22528092 0 0 Z " fill="#5D5D5D" transform="translate(413,282)"/>
<path d="M0 0 C3.92300495 2.35380297 4.83857315 4.64464931 6 9 C1.2 5.67692308 1.2 5.67692308 0.1875 2.25 C0.125625 1.5075 0.06375 0.765 0 0 Z " fill="#AFAFAF" transform="translate(107,250)"/>
<path d="M0 0 C3.48331435 3.01887244 4.79157144 5.56909529 6 10 C2.46413986 6.82679218 0.41421969 4.83256305 0 0 Z " fill="#5D5D5D" transform="translate(360,195)"/>
<path d="M0 0 C3 1 3 1 5 4 C4.625 6.1875 4.625 6.1875 4 8 C1.84622436 5.37801226 0.59927826 3.35595828 0 0 Z " fill="#7C7C7C" transform="translate(72,192)"/>
<path d="M0 0 C1.98 0.99 1.98 0.99 4 2 C4 2.99 4 3.98 4 5 C4.66 5 5.32 5 6 5 C5.67 6.32 5.34 7.64 5 9 C5 8.01 5 7.02 5 6 C4.01 5.67 3.02 5.34 2 5 C0.8125 2.4375 0.8125 2.4375 0 0 Z " fill="#5B5B5B" transform="translate(124,277)"/>
<path d="M0 0 C0.66 0 1.32 0 2 0 C2.99 2.64 3.98 5.28 5 8 C3.0625 7.375 3.0625 7.375 1 6 C0.25 2.875 0.25 2.875 0 0 Z " fill="#A3A3A3" transform="translate(116,264)"/>
<path d="M0 0 C1.65 0.99 3.3 1.98 5 3 C4.67 4.65 4.34 6.3 4 8 C2 5 2 5 2 3 C1.34 3 0.68 3 0 3 C0 2.01 0 1.02 0 0 Z " fill="#1F1F1F" transform="translate(99,227)"/>
</svg>
